<?xml version="1.0" encoding="UTF-8" standalone="no"?><svg xmlns="http://www.w3.org/2000/svg" id="new-ship" width="32" height="32" viewBox="0 0 32 32" preserveAspectRatio="xMidYMid meet" rendering="crispEdges"><rect id="16-9" x="15" y="8" width="1" height="1" shape-rendering="crispEdges" style="fill:#263238;opacity:255;"></rect><rect id="15-10" x="14" y="9" width="1" height="1" shape-rendering="crispEdges" style="fill:#263238;opacity:255;"></rect><rect id="16-10" x="15" y="9" width="1" height="1" shape-rendering="crispEdges" style="fill:#263238;opacity:255;"></rect><rect id="17-10" x="16" y="9" width="1" height="1" shape-rendering="crispEdges" style="fill:#263238;opacity:255;"></rect><rect id="16-11" x="15" y="10" width="1" height="1" shape-rendering="crispEdges" style="fill:#263238;opacity:255;"></rect><rect id="15-12" x="14" y="11" width="1" height="1" shape-rendering="crispEdges" style="fill:#263238;opacity:255;"></rect><rect id="16-12" x="15" y="11" width="1" height="1" shape-rendering="crispEdges" style="fill:#263238;opacity:255;"></rect><rect id="16-13" x="15" y="12" width="1" height="1" shape-rendering="crispEdges" style="fill:#263238;opacity:255;"></rect><rect id="17-13" x="16" y="12" width="1" height="1" shape-rendering="crispEdges" style="fill:#263238;opacity:255;"></rect><rect id="18-13" x="17" y="12" width="1" height="1" shape-rendering="crispEdges" style="fill:#263238;opacity:255;"></rect><rect id="19-13" x="18" y="12" width="1" height="1" shape-rendering="crispEdges" style="fill:#263238;opacity:255;"></rect><rect id="15-14" x="14" y="13" width="1" height="1" shape-rendering="crispEdges" style="fill:#263238;opacity:255;"></rect><rect id="16-14" x="15" y="13" width="1" height="1" shape-rendering="crispEdges" style="fill:#546e7a;opacity:255;"></rect><rect id="17-14" x="16" y="13" width="1" height="1" shape-rendering="crispEdges" style="fill:#607d8b;opacity:255;"></rect><rect id="18-14" x="17" y="13" width="1" height="1" shape-rendering="crispEdges" style="fill:#263238;opacity:255;"></rect><rect id="15-15" x="14" y="14" width="1" height="1" shape-rendering="crispEdges" style="fill:#263238;opacity:255;"></rect><rect id="16-15" x="15" y="14" width="1" height="1" shape-rendering="crispEdges" style="fill:#546e7a;opacity:255;"></rect><rect id="17-15" x="16" y="14" width="1" height="1" shape-rendering="crispEdges" style="fill:#607d8b;opacity:255;"></rect><rect id="18-15" x="17" y="14" width="1" height="1" shape-rendering="crispEdges" style="fill:#607d8b;opacity:255;"></rect><rect id="19-15" x="18" y="14" width="1" height="1" shape-rendering="crispEdges" style="fill:#263238;opacity:255;"></rect><rect id="20-15" x="19" y="14" width="1" height="1" shape-rendering="crispEdges" style="fill:#263238;opacity:255;"></rect><rect id="15-16" x="14" y="15" width="1" height="1" shape-rendering="crispEdges" style="fill:#263238;opacity:255;"></rect><rect id="16-16" x="15" y="15" width="1" height="1" shape-rendering="crispEdges" style="fill:#546e7a;opacity:255;"></rect><rect id="17-16" x="16" y="15" width="1" height="1" shape-rendering="crispEdges" style="fill:#607d8b;opacity:255;"></rect><rect id="18-16" x="17" y="15" width="1" height="1" shape-rendering="crispEdges" style="fill:#607d8b;opacity:255;"></rect><rect id="19-16" x="18" y="15" width="1" height="1" shape-rendering="crispEdges" style="fill:#263238;opacity:255;"></rect><rect id="12-17" x="11" y="16" width="1" height="1" shape-rendering="crispEdges" style="fill:#263238;opacity:255;"></rect><rect id="13-17" x="12" y="16" width="1" height="1" shape-rendering="crispEdges" style="fill:#263238;opacity:255;"></rect><rect id="14-17" x="13" y="16" width="1" height="1" shape-rendering="crispEdges" style="fill:#263238;opacity:255;"></rect><rect id="15-17" x="14" y="16" width="1" height="1" shape-rendering="crispEdges" style="fill:#546e7a;opacity:255;"></rect><rect id="16-17" x="15" y="16" width="1" height="1" shape-rendering="crispEdges" style="fill:#607d8b;opacity:255;"></rect><rect id="17-17" x="16" y="16" width="1" height="1" shape-rendering="crispEdges" style="fill:#263238;opacity:255;"></rect><rect id="18-17" x="17" y="16" width="1" height="1" shape-rendering="crispEdges" style="fill:#607d8b;opacity:255;"></rect><rect id="19-17" x="18" y="16" width="1" height="1" shape-rendering="crispEdges" style="fill:#607d8b;opacity:255;"></rect><rect id="20-17" x="19" y="16" width="1" height="1" shape-rendering="crispEdges" style="fill:#263238;opacity:255;"></rect><rect id="13-18" x="12" y="17" width="1" height="1" shape-rendering="crispEdges" style="fill:#263238;opacity:255;"></rect><rect id="14-18" x="13" y="17" width="1" height="1" shape-rendering="crispEdges" style="fill:#546e7a;opacity:255;"></rect><rect id="15-18" x="14" y="17" width="1" height="1" shape-rendering="crispEdges" style="fill:#607d8b;opacity:255;"></rect><rect id="16-18" x="15" y="17" width="1" height="1" shape-rendering="crispEdges" style="fill:#607d8b;opacity:255;"></rect><rect id="17-18" x="16" y="17" width="1" height="1" shape-rendering="crispEdges" style="fill:#607d8b;opacity:255;"></rect><rect id="18-18" x="17" y="17" width="1" height="1" shape-rendering="crispEdges" style="fill:#607d8b;opacity:255;"></rect><rect id="19-18" x="18" y="17" width="1" height="1" shape-rendering="crispEdges" style="fill:#607d8b;opacity:255;"></rect><rect id="20-18" x="19" y="17" width="1" height="1" shape-rendering="crispEdges" style="fill:#607d8b;opacity:255;"></rect><rect id="21-18" x="20" y="17" width="1" height="1" shape-rendering="crispEdges" style="fill:#263238;opacity:255;"></rect><rect id="6-19" x="5" y="18" width="1" height="1" shape-rendering="crispEdges" style="fill:#263238;opacity:255;"></rect><rect id="7-19" x="6" y="18" width="1" height="1" shape-rendering="crispEdges" style="fill:#263238;opacity:255;"></rect><rect id="8-19" x="7" y="18" width="1" height="1" shape-rendering="crispEdges" style="fill:#263238;opacity:255;"></rect><rect id="9-19" x="8" y="18" width="1" height="1" shape-rendering="crispEdges" style="fill:#263238;opacity:255;"></rect><rect id="10-19" x="9" y="18" width="1" height="1" shape-rendering="crispEdges" style="fill:#263238;opacity:255;"></rect><rect id="11-19" x="10" y="18" width="1" height="1" shape-rendering="crispEdges" style="fill:#263238;opacity:255;"></rect><rect id="12-19" x="11" y="18" width="1" height="1" shape-rendering="crispEdges" style="fill:#263238;opacity:255;"></rect><rect id="13-19" x="12" y="18" width="1" height="1" shape-rendering="crispEdges" style="fill:#546e7a;opacity:255;"></rect><rect id="14-19" x="13" y="18" width="1" height="1" shape-rendering="crispEdges" style="fill:#607d8b;opacity:255;"></rect><rect id="15-19" x="14" y="18" width="1" height="1" shape-rendering="crispEdges" style="fill:#607d8b;opacity:255;"></rect><rect id="16-19" x="15" y="18" width="1" height="1" shape-rendering="crispEdges" style="fill:#263238;opacity:255;"></rect><rect id="17-19" x="16" y="18" width="1" height="1" shape-rendering="crispEdges" style="fill:#607d8b;opacity:255;"></rect><rect id="18-19" x="17" y="18" width="1" height="1" shape-rendering="crispEdges" style="fill:#263238;opacity:255;"></rect><rect id="19-19" x="18" y="18" width="1" height="1" shape-rendering="crispEdges" style="fill:#607d8b;opacity:255;"></rect><rect id="20-19" x="19" y="18" width="1" height="1" shape-rendering="crispEdges" style="fill:#263238;opacity:255;"></rect><rect id="21-19" x="20" y="18" width="1" height="1" shape-rendering="crispEdges" style="fill:#607d8b;opacity:255;"></rect><rect id="22-19" x="21" y="18" width="1" height="1" shape-rendering="crispEdges" style="fill:#263238;opacity:255;"></rect><rect id="23-19" x="22" y="18" width="1" height="1" shape-rendering="crispEdges" style="fill:#263238;opacity:255;"></rect><rect id="24-19" x="23" y="18" width="1" height="1" shape-rendering="crispEdges" style="fill:#263238;opacity:255;"></rect><rect id="25-19" x="24" y="18" width="1" height="1" shape-rendering="crispEdges" style="fill:#263238;opacity:255;"></rect><rect id="26-19" x="25" y="18" width="1" height="1" shape-rendering="crispEdges" style="fill:#263238;opacity:255;"></rect><rect id="27-19" x="26" y="18" width="1" height="1" shape-rendering="crispEdges" style="fill:#263238;opacity:255;"></rect><rect id="7-20" x="6" y="19" width="1" height="1" shape-rendering="crispEdges" style="fill:#263238;opacity:255;"></rect><rect id="8-20" x="7" y="19" width="1" height="1" shape-rendering="crispEdges" style="fill:#546e7a;opacity:255;"></rect><rect id="9-20" x="8" y="19" width="1" height="1" shape-rendering="crispEdges" style="fill:#546e7a;opacity:255;"></rect><rect id="10-20" x="9" y="19" width="1" height="1" shape-rendering="crispEdges" style="fill:#546e7a;opacity:255;"></rect><rect id="11-20" x="10" y="19" width="1" height="1" shape-rendering="crispEdges" style="fill:#546e7a;opacity:255;"></rect><rect id="12-20" x="11" y="19" width="1" height="1" shape-rendering="crispEdges" style="fill:#546e7a;opacity:255;"></rect><rect id="13-20" x="12" y="19" width="1" height="1" shape-rendering="crispEdges" style="fill:#607d8b;opacity:255;"></rect><rect id="14-20" x="13" y="19" width="1" height="1" shape-rendering="crispEdges" style="fill:#607d8b;opacity:255;"></rect><rect id="15-20" x="14" y="19" width="1" height="1" shape-rendering="crispEdges" style="fill:#607d8b;opacity:255;"></rect><rect id="16-20" x="15" y="19" width="1" height="1" shape-rendering="crispEdges" style="fill:#607d8b;opacity:255;"></rect><rect id="17-20" x="16" y="19" width="1" height="1" shape-rendering="crispEdges" style="fill:#607d8b;opacity:255;"></rect><rect id="18-20" x="17" y="19" width="1" height="1" shape-rendering="crispEdges" style="fill:#607d8b;opacity:255;"></rect><rect id="19-20" x="18" y="19" width="1" height="1" shape-rendering="crispEdges" style="fill:#607d8b;opacity:255;"></rect><rect id="20-20" x="19" y="19" width="1" height="1" shape-rendering="crispEdges" style="fill:#607d8b;opacity:255;"></rect><rect id="21-20" x="20" y="19" width="1" height="1" shape-rendering="crispEdges" style="fill:#607d8b;opacity:255;"></rect><rect id="22-20" x="21" y="19" width="1" height="1" shape-rendering="crispEdges" style="fill:#607d8b;opacity:255;"></rect><rect id="23-20" x="22" y="19" width="1" height="1" shape-rendering="crispEdges" style="fill:#607d8b;opacity:255;"></rect><rect id="24-20" x="23" y="19" width="1" height="1" shape-rendering="crispEdges" style="fill:#607d8b;opacity:255;"></rect><rect id="25-20" x="24" y="19" width="1" height="1" shape-rendering="crispEdges" style="fill:#607d8b;opacity:255;"></rect><rect id="26-20" x="25" y="19" width="1" height="1" shape-rendering="crispEdges" style="fill:#263238;opacity:255;"></rect><rect id="8-21" x="7" y="20" width="1" height="1" shape-rendering="crispEdges" style="fill:#263238;opacity:255;"></rect><rect id="9-21" x="8" y="20" width="1" height="1" shape-rendering="crispEdges" style="fill:#546e7a;opacity:255;"></rect><rect id="10-21" x="9" y="20" width="1" height="1" shape-rendering="crispEdges" style="fill:#607d8b;opacity:255;"></rect><rect id="11-21" x="10" y="20" width="1" height="1" shape-rendering="crispEdges" style="fill:#607d8b;opacity:255;"></rect><rect id="12-21" x="11" y="20" width="1" height="1" shape-rendering="crispEdges" style="fill:#607d8b;opacity:255;"></rect><rect id="13-21" x="12" y="20" width="1" height="1" shape-rendering="crispEdges" style="fill:#607d8b;opacity:255;"></rect><rect id="14-21" x="13" y="20" width="1" height="1" shape-rendering="crispEdges" style="fill:#607d8b;opacity:255;"></rect><rect id="15-21" x="14" y="20" width="1" height="1" shape-rendering="crispEdges" style="fill:#607d8b;opacity:255;"></rect><rect id="16-21" x="15" y="20" width="1" height="1" shape-rendering="crispEdges" style="fill:#607d8b;opacity:255;"></rect><rect id="17-21" x="16" y="20" width="1" height="1" shape-rendering="crispEdges" style="fill:#607d8b;opacity:255;"></rect><rect id="18-21" x="17" y="20" width="1" height="1" shape-rendering="crispEdges" style="fill:#607d8b;opacity:255;"></rect><rect id="19-21" x="18" y="20" width="1" height="1" shape-rendering="crispEdges" style="fill:#607d8b;opacity:255;"></rect><rect id="20-21" x="19" y="20" width="1" height="1" shape-rendering="crispEdges" style="fill:#607d8b;opacity:255;"></rect><rect id="21-21" x="20" y="20" width="1" height="1" shape-rendering="crispEdges" style="fill:#607d8b;opacity:255;"></rect><rect id="22-21" x="21" y="20" width="1" height="1" shape-rendering="crispEdges" style="fill:#607d8b;opacity:255;"></rect><rect id="23-21" x="22" y="20" width="1" height="1" shape-rendering="crispEdges" style="fill:#607d8b;opacity:255;"></rect><rect id="24-21" x="23" y="20" width="1" height="1" shape-rendering="crispEdges" style="fill:#263238;opacity:255;"></rect><rect id="25-21" x="24" y="20" width="1" height="1" shape-rendering="crispEdges" style="fill:#263238;opacity:255;"></rect><rect id="8-22" x="7" y="21" width="1" height="1" shape-rendering="crispEdges" style="fill:#263238;opacity:255;"></rect><rect id="9-22" x="8" y="21" width="1" height="1" shape-rendering="crispEdges" style="fill:#546e7a;opacity:255;"></rect><rect id="10-22" x="9" y="21" width="1" height="1" shape-rendering="crispEdges" style="fill:#607d8b;opacity:255;"></rect><rect id="11-22" x="10" y="21" width="1" height="1" shape-rendering="crispEdges" style="fill:#607d8b;opacity:255;"></rect><rect id="12-22" x="11" y="21" width="1" height="1" shape-rendering="crispEdges" style="fill:#607d8b;opacity:255;"></rect><rect id="13-22" x="12" y="21" width="1" height="1" shape-rendering="crispEdges" style="fill:#607d8b;opacity:255;"></rect><rect id="14-22" x="13" y="21" width="1" height="1" shape-rendering="crispEdges" style="fill:#607d8b;opacity:255;"></rect><rect id="15-22" x="14" y="21" width="1" height="1" shape-rendering="crispEdges" style="fill:#607d8b;opacity:255;"></rect><rect id="16-22" x="15" y="21" width="1" height="1" shape-rendering="crispEdges" style="fill:#607d8b;opacity:255;"></rect><rect id="17-22" x="16" y="21" width="1" height="1" shape-rendering="crispEdges" style="fill:#607d8b;opacity:255;"></rect><rect id="18-22" x="17" y="21" width="1" height="1" shape-rendering="crispEdges" style="fill:#607d8b;opacity:255;"></rect><rect id="19-22" x="18" y="21" width="1" height="1" shape-rendering="crispEdges" style="fill:#607d8b;opacity:255;"></rect><rect id="20-22" x="19" y="21" width="1" height="1" shape-rendering="crispEdges" style="fill:#607d8b;opacity:255;"></rect><rect id="21-22" x="20" y="21" width="1" height="1" shape-rendering="crispEdges" style="fill:#607d8b;opacity:255;"></rect><rect id="22-22" x="21" y="21" width="1" height="1" shape-rendering="crispEdges" style="fill:#607d8b;opacity:255;"></rect><rect id="23-22" x="22" y="21" width="1" height="1" shape-rendering="crispEdges" style="fill:#263238;opacity:255;"></rect><rect id="9-23" x="8" y="22" width="1" height="1" shape-rendering="crispEdges" style="fill:#263238;opacity:255;"></rect><rect id="10-23" x="9" y="22" width="1" height="1" shape-rendering="crispEdges" style="fill:#263238;opacity:255;"></rect><rect id="11-23" x="10" y="22" width="1" height="1" shape-rendering="crispEdges" style="fill:#263238;opacity:255;"></rect><rect id="12-23" x="11" y="22" width="1" height="1" shape-rendering="crispEdges" style="fill:#263238;opacity:255;"></rect><rect id="13-23" x="12" y="22" width="1" height="1" shape-rendering="crispEdges" style="fill:#263238;opacity:255;"></rect><rect id="14-23" x="13" y="22" width="1" height="1" shape-rendering="crispEdges" style="fill:#263238;opacity:255;"></rect><rect id="15-23" x="14" y="22" width="1" height="1" shape-rendering="crispEdges" style="fill:#263238;opacity:255;"></rect><rect id="16-23" x="15" y="22" width="1" height="1" shape-rendering="crispEdges" style="fill:#263238;opacity:255;"></rect><rect id="17-23" x="16" y="22" width="1" height="1" shape-rendering="crispEdges" style="fill:#263238;opacity:255;"></rect><rect id="18-23" x="17" y="22" width="1" height="1" shape-rendering="crispEdges" style="fill:#263238;opacity:255;"></rect><rect id="19-23" x="18" y="22" width="1" height="1" shape-rendering="crispEdges" style="fill:#263238;opacity:255;"></rect><rect id="20-23" x="19" y="22" width="1" height="1" shape-rendering="crispEdges" style="fill:#263238;opacity:255;"></rect><rect id="21-23" x="20" y="22" width="1" height="1" shape-rendering="crispEdges" style="fill:#263238;opacity:255;"></rect><rect id="22-23" x="21" y="22" width="1" height="1" shape-rendering="crispEdges" style="fill:#263238;opacity:255;"></rect></svg>